<svg xmlns="http://www.w3.org/2000/svg" viewBox="0 0 64 64" role="img" aria-label="LINE">
  <rect x="8" y="8" width="48" height="48" rx="14" fill="#73836F"/>
  <path d="M47 29.5c0-8-7.2-14.5-16-14.5s-16 6.5-16 14.5c0 7.1 5.7 13 13.4 14.3.5.1 1.2.4 1.4.9.2.4.1 1 .1 1.4l-.2 1.5c-.1.5-.4 1.8 1.4 1 1.8-.8 9.8-5.7 13.4-9.8 1.7-2 2.5-4.2 2.5-6.3Z" fill="#FFFAF4"/>
  <path d="M22.5 32.6h4.2v2h-6.4v-9.1h2.2v7.1Zm6.3-7.1H31v9.1h-2.2v-9.1Zm4.2 0h2.1l3.5 5.3v-5.3h2.1v9.1h-2l-3.6-5.4v5.4H33v-9.1Zm9.6 0h6v2h-3.9V29h3.5v1.9h-3.5v1.7h4v2h-6.1v-9.1Z" fill="#73836F"/>
</svg>
